<svg width="111" height="20" viewBox="0 0 111 20" fill="none" xmlns="http://www.w3.org/2000/svg">
<path d="M5.19922 14.2773L4.08594 15.3906V19H0.136719V0.988281H4.08594V10.5508L4.48438 10.0234L7.46094 6.32031H12.1953L7.75391 11.5352L12.4883 19H7.96484L5.19922 14.2773ZM12.7344 12.543C12.7344 11.2773 12.9805 10.1523 13.4727 9.16797C13.9648 8.17578 14.6719 7.41406 15.5938 6.88281C16.5156 6.35156 17.5977 6.08594 18.8398 6.08594C20.7383 6.08594 22.2344 6.67578 23.3281 7.85547C24.4219 9.02734 24.9688 10.625 24.9688 12.6484V12.7891C24.9688 14.7656 24.418 16.3359 23.3164 17.5C22.2227 18.6562 20.7383 19.2344 18.8633 19.2344C17.0586 19.2344 15.6094 18.6953 14.5156 17.6172C13.4219 16.5312 12.832 15.0625 12.7461 13.2109L12.7344 12.543ZM16.6836 12.7891C16.6836 13.9609 16.8672 14.8203 17.2344 15.3672C17.6016 15.9141 18.1445 16.1875 18.8633 16.1875C20.2695 16.1875 20.9883 15.1055 21.0195 12.9414V12.543C21.0195 10.2695 20.293 9.13281 18.8398 9.13281C17.5195 9.13281 16.8047 10.1133 16.6953 12.0742L16.6836 12.7891ZM31.5781 14.3008L33.582 6.32031H37.7422L33.6055 19H29.5742L25.4375 6.32031H29.6094L31.5781 14.3008ZM44.8906 19.2344C42.9453 19.2344 41.3711 18.6562 40.168 17.5C38.9648 16.3359 38.3633 14.8242 38.3633 12.9648V12.6367C38.3633 11.3398 38.6016 10.1953 39.0781 9.20312C39.5625 8.21094 40.2656 7.44531 41.1875 6.90625C42.1094 6.35938 43.2031 6.08594 44.4688 6.08594C46.25 6.08594 47.6562 6.64062 48.6875 7.75C49.7188 8.85156 50.2344 10.3906 50.2344 12.3672V13.9023H42.3828C42.5234 14.6133 42.832 15.1719 43.3086 15.5781C43.7852 15.9844 44.4023 16.1875 45.1602 16.1875C46.4102 16.1875 47.3867 15.75 48.0898 14.875L49.8945 17.0078C49.4023 17.6875 48.7031 18.2305 47.7969 18.6367C46.8984 19.0352 45.9297 19.2344 44.8906 19.2344ZM44.4453 9.13281C43.2891 9.13281 42.6016 9.89844 42.3828 11.4297H46.3672V11.125C46.3828 10.4922 46.2227 10.0039 45.8867 9.66016C45.5508 9.30859 45.0703 9.13281 44.4453 9.13281ZM59.5039 9.89453L58.2031 9.80078C56.9609 9.80078 56.1641 10.1914 55.8125 10.9727V19H51.8633V6.32031H55.5664L55.6953 7.94922C56.3594 6.70703 57.2852 6.08594 58.4727 6.08594C58.8945 6.08594 59.2617 6.13281 59.5742 6.22656L59.5039 9.89453Z" fill="black"/>
<path d="M63.3711 15.168C63.9961 15.168 64.5156 15.3555 64.9297 15.7305C65.3438 16.0977 65.5508 16.5703 65.5508 17.1484C65.5508 17.7266 65.3438 18.2031 64.9297 18.5781C64.5156 18.9453 63.9961 19.1289 63.3711 19.1289C62.7383 19.1289 62.2148 18.9414 61.8008 18.5664C61.3945 18.1914 61.1914 17.7188 61.1914 17.1484C61.1914 16.5781 61.3945 16.1055 61.8008 15.7305C62.2148 15.3555 62.7383 15.168 63.3711 15.168ZM75.8633 9.89453L74.5625 9.80078C73.3203 9.80078 72.5234 10.1914 72.1719 10.9727V19H68.2227V6.32031H71.9258L72.0547 7.94922C72.7188 6.70703 73.6445 6.08594 74.832 6.08594C75.2539 6.08594 75.6211 6.13281 75.9336 6.22656L75.8633 9.89453ZM83.1875 19.2344C81.2422 19.2344 79.668 18.6562 78.4648 17.5C77.2617 16.3359 76.6602 14.8242 76.6602 12.9648V12.6367C76.6602 11.3398 76.8984 10.1953 77.375 9.20312C77.8594 8.21094 78.5625 7.44531 79.4844 6.90625C80.4062 6.35938 81.5 6.08594 82.7656 6.08594C84.5469 6.08594 85.9531 6.64062 86.9844 7.75C88.0156 8.85156 88.5312 10.3906 88.5312 12.3672V13.9023H80.6797C80.8203 14.6133 81.1289 15.1719 81.6055 15.5781C82.082 15.9844 82.6992 16.1875 83.457 16.1875C84.707 16.1875 85.6836 15.75 86.3867 14.875L88.1914 17.0078C87.6992 17.6875 87 18.2305 86.0938 18.6367C85.1953 19.0352 84.2266 19.2344 83.1875 19.2344ZM82.7422 9.13281C81.5859 9.13281 80.8984 9.89844 80.6797 11.4297H84.6641V11.125C84.6797 10.4922 84.5195 10.0039 84.1836 9.66016C83.8477 9.30859 83.3672 9.13281 82.7422 9.13281ZM93.7578 6.32031L93.8867 7.80859C94.7617 6.66016 95.9688 6.08594 97.5078 6.08594C98.8281 6.08594 99.8125 6.48047 100.461 7.26953C101.117 8.05859 101.457 9.24609 101.48 10.832V19H97.5195V10.9961C97.5195 10.3555 97.3906 9.88672 97.1328 9.58984C96.875 9.28516 96.4062 9.13281 95.7266 9.13281C94.9531 9.13281 94.3789 9.4375 94.0039 10.0469V19H90.0547V6.32031H93.7578ZM108.277 3.16797V6.32031H110.363V9.0625H108.277V14.8633C108.277 15.3398 108.363 15.6719 108.535 15.8594C108.707 16.0469 109.047 16.1406 109.555 16.1406C109.945 16.1406 110.273 16.1172 110.539 16.0703V18.8945C109.828 19.1211 109.086 19.2344 108.312 19.2344C106.953 19.2344 105.949 18.9141 105.301 18.2734C104.652 17.6328 104.328 16.6602 104.328 15.3555V9.0625H102.711V6.32031H104.328V3.16797H108.277Z" fill="white"/>
</svg>
