<svg width="111" height="20" fill="none" xmlns="http://www.w3.org/2000/svg"><path d="M5.2 14.277l-1.114 1.114V19H.136V.988h3.95v9.563l.398-.528L7.461 6.32h4.734l-4.441 5.215L12.488 19H7.965l-2.766-4.723zm7.534-1.734c0-1.266.246-2.39.739-3.375.492-.992 1.199-1.754 2.12-2.285.923-.531 2.005-.797 3.247-.797 1.898 0 3.394.59 4.488 1.77 1.094 1.171 1.64 2.769 1.64 4.792v.141c0 1.977-.55 3.547-1.652 4.711-1.093 1.156-2.578 1.734-4.453 1.734-1.804 0-3.254-.539-4.347-1.617-1.094-1.086-1.684-2.555-1.77-4.406l-.012-.668zm3.95.246c0 1.172.183 2.031.55 2.578.368.547.91.82 1.63.82 1.405 0 2.124-1.082 2.155-3.246v-.398c0-2.273-.726-3.41-2.18-3.41-1.32 0-2.034.98-2.144 2.941l-.011.715zm14.894 1.512l2.004-7.98h4.16L33.606 19h-4.032L25.437 6.32h4.172l1.97 7.98zm13.313 4.933c-1.946 0-3.52-.578-4.723-1.734-1.203-1.164-1.805-2.676-1.805-4.535v-.328c0-1.297.239-2.442.715-3.434a5.273 5.273 0 012.11-2.297c.921-.547 2.015-.82 3.28-.82 1.782 0 3.188.555 4.22 1.664 1.03 1.102 1.546 2.64 1.546 4.617v1.535h-7.851c.14.711.449 1.27.926 1.676.476.406 1.093.61 1.851.61 1.25 0 2.227-.438 2.93-1.313l1.804 2.133c-.492.68-1.19 1.223-2.097 1.629a7.087 7.087 0 01-2.906.597zm-.446-10.101c-1.156 0-1.843.765-2.062 2.297h3.984v-.305c.016-.633-.144-1.121-.48-1.465-.336-.351-.817-.527-1.442-.527zm15.059.762l-1.3-.094c-1.243 0-2.04.39-2.392 1.172V19h-3.949V6.32h3.703l.13 1.63c.663-1.243 1.59-1.864 2.777-1.864.422 0 .789.047 1.101.14l-.07 3.669z" fill="#000"/><path d="M63.371 15.168c.625 0 1.145.188 1.559.563.414.367.62.84.62 1.417 0 .579-.206 1.055-.62 1.43-.414.367-.934.55-1.559.55-.633 0-1.156-.187-1.57-.562-.407-.375-.61-.847-.61-1.418 0-.57.203-1.043.61-1.418.414-.375.937-.562 1.57-.562zm12.492-5.273l-1.3-.094c-1.243 0-2.04.39-2.391 1.172V19h-3.95V6.32h3.704l.129 1.63c.664-1.243 1.59-1.864 2.777-1.864.422 0 .79.047 1.102.14l-.07 3.669zm7.325 9.34c-1.946 0-3.52-.579-4.723-1.735-1.203-1.164-1.805-2.676-1.805-4.535v-.328c0-1.297.238-2.442.715-3.434a5.273 5.273 0 012.11-2.297c.921-.547 2.015-.82 3.28-.82 1.782 0 3.188.555 4.22 1.664 1.03 1.102 1.546 2.64 1.546 4.617v1.535H80.68c.14.711.449 1.27.925 1.676.477.406 1.094.61 1.852.61 1.25 0 2.227-.438 2.93-1.313l1.804 2.133c-.492.68-1.191 1.223-2.097 1.629a7.087 7.087 0 01-2.906.597zm-.446-10.102c-1.156 0-1.844.765-2.062 2.297h3.984v-.305c.016-.633-.145-1.121-.48-1.465-.336-.351-.817-.527-1.442-.527zM93.758 6.32l.129 1.489c.875-1.149 2.082-1.723 3.62-1.723 1.321 0 2.305.394 2.954 1.184.656.789.996 1.976 1.019 3.562V19h-3.96v-8.004c0-.64-.13-1.11-.387-1.406-.258-.305-.727-.457-1.406-.457-.774 0-1.348.305-1.723.914V19h-3.95V6.32h3.704zm14.519-3.152V6.32h2.086v2.742h-2.086v5.801c0 .477.086.809.258.996.172.188.512.282 1.02.282.39 0 .718-.024.984-.07v2.823a7.288 7.288 0 01-2.227.34c-1.359 0-2.363-.32-3.011-.96-.649-.641-.973-1.614-.973-2.919V9.063h-1.617V6.32h1.617V3.168h3.949z" fill="#fff"/></svg>