<svg width="16" height="16" fill="none" xmlns="http://www.w3.org/2000/svg"><g clip-path="url(#clip0)"><path d="M15.859.137a.468.468 0 00-.663 0L9.054 6.28a2.97 2.97 0 00-3.9.2L.202 9.994a.469.469 0 00-.06.714l5.155 5.155c.21.21.561.174.724-.076l3.334-5.12a2.972 2.972 0 00.335-3.699L15.86.8a.468.468 0 000-.663zM7.219 6.58c1.585 0 2.56 1.746 1.727 3.096L6.152 6.881a2.017 2.017 0 011.066-.302zM5.55 14.792l-.761-.761 1.351-2.027a.468.468 0 10-.78-.52l-1.247 1.871-2.918-2.918L5.4 7.454l2.985 2.985-2.834 4.353z" fill="#F6B3BE"/></g><defs><clipPath id="clip0"><path fill="#fff" d="M0 0h16v16H0z"/></clipPath></defs></svg>