<svg width="16" height="16" viewBox="0 0 16 16" fill="none" xmlns="http://www.w3.org/2000/svg">
<g clip-path="url(#clip0)">
<path d="M15.8588 0.137227C15.6759 -0.0457422 15.3792 -0.0457422 15.1963 0.137227L9.0541 6.2794C7.9025 5.37067 6.22842 5.43733 5.1536 6.47942L0.201601 9.99437C-0.0354961 10.1627 -0.0629821 10.5032 0.141507 10.7077L5.29665 15.8628C5.50701 16.0732 5.85821 16.0365 6.02053 15.7872L9.3546 10.6673C10.3332 9.65167 10.4455 8.10534 9.69024 6.96839L15.8588 0.799794C16.0418 0.616825 16.0418 0.320196 15.8588 0.137227ZM7.21807 6.57934C8.80448 6.57934 9.77914 8.32488 8.94638 9.67525L6.15199 6.88087C6.46924 6.68441 6.83558 6.57934 7.21807 6.57934ZM5.55061 14.7917L4.78975 14.0308L6.14112 12.0039C6.28468 11.7886 6.22649 11.4977 6.01119 11.3542C5.79596 11.2106 5.50504 11.2688 5.36149 11.4841L4.11407 13.3552L1.19631 10.4374L5.39975 7.4538L8.38507 10.4391L5.55061 14.7917Z" fill="#F6B3BE"/>
</g>
<defs>
<clipPath id="clip0">
<rect width="16" height="16" fill="white"/>
</clipPath>
</defs>
</svg>
