<svg width="14" height="16" viewBox="0 0 14 16" fill="none" xmlns="http://www.w3.org/2000/svg">
<path d="M12.9974 6.83145C12.5859 6.49503 12.0031 6.38736 11.5125 6.55704C11.3811 6.60257 11.259 6.66641 11.1496 6.74686C10.8707 6.95206 10.2514 7.56802 9.76069 8.17764V3.47854C9.76069 3.07913 9.59651 2.68875 9.31025 2.40737C9.02607 2.12808 8.65278 1.97744 8.26106 1.98477C8.0832 1.98794 7.91279 2.02322 7.75532 2.08486V1.62588C7.75532 1.19119 7.57661 0.766259 7.26484 0.459863C6.95588 0.156151 6.55158 -0.00754525 6.12397 0.000267279C5.27143 0.0150378 4.57538 0.708032 4.54987 1.5552C4.36518 1.47146 4.16462 1.42446 3.95697 1.41824C3.52387 1.40554 3.09491 1.57314 2.78046 1.87844C2.47248 2.17739 2.3028 2.57205 2.3028 2.98855L2.3017 3.43362C2.16876 3.38992 2.02704 3.36599 1.8797 3.36599C1.13617 3.36599 0.531311 3.97085 0.531311 4.71426L0.531799 11.5451L0.532898 11.5774C0.595032 12.4739 0.782654 13.2415 1.09076 13.8589C1.37958 14.4378 1.78253 14.9038 2.28839 15.2442C3.28388 15.9141 4.51362 16 5.4737 16C7.35908 16 9.05525 15.0627 9.90351 13.5529C10.0067 13.3866 10.2785 12.9591 10.5721 12.4981C10.858 12.0489 11.124 11.6349 11.3585 11.2697C11.4874 11.0689 11.6047 10.8863 11.7065 10.7271C12.0858 10.1339 12.4899 9.55887 12.9079 9.01773C13.0629 8.81705 13.1107 8.76261 13.1215 8.75064C13.3172 8.53714 13.4405 8.27579 13.4781 7.99466C13.5373 7.55362 13.362 7.12955 12.9974 6.83145ZM12.5479 7.87015C12.5358 7.95999 12.4949 8.0452 12.4296 8.11649C12.3956 8.15372 12.3347 8.22452 12.1652 8.444C11.7303 9.00699 11.3099 9.60501 10.9157 10.2215C10.8142 10.3803 10.6973 10.5622 10.5687 10.7625C10.3337 11.1285 10.0673 11.5434 9.78034 11.9941C9.47993 12.466 9.20185 12.9031 9.10005 13.0675L9.08943 13.0856C8.40864 14.3044 7.02326 15.0614 5.47382 15.0614C4.64704 15.0614 3.59723 14.9937 2.81244 14.4656C2.01166 13.9268 1.57269 12.9661 1.4704 11.5286L1.46991 4.71438C1.46991 4.48843 1.65375 4.30459 1.8797 4.30459C2.107 4.30459 2.29193 4.48843 2.29193 4.71438V7.27066C2.29193 7.27823 2.29279 7.28555 2.29303 7.29312C2.29352 7.30142 2.29352 7.30985 2.29437 7.31815C2.29511 7.32559 2.29657 7.3328 2.29767 7.34012C2.29889 7.3483 2.29975 7.3566 2.30133 7.36478C2.30292 7.3721 2.30512 7.3793 2.30695 7.38651C2.3089 7.3942 2.31049 7.40213 2.31293 7.4097C2.31513 7.41702 2.31806 7.4241 2.32074 7.43118C2.32331 7.43839 2.32562 7.44571 2.32868 7.45279C2.33161 7.45987 2.33515 7.46658 2.33844 7.47342C2.34174 7.48026 2.34479 7.48721 2.34833 7.49393C2.35187 7.50052 2.35614 7.50687 2.36005 7.51334C2.36395 7.51981 2.36762 7.5264 2.37177 7.53262C2.37604 7.53885 2.3808 7.54471 2.38532 7.55069C2.38983 7.55679 2.39398 7.56302 2.39874 7.56876C2.40351 7.57449 2.40875 7.57974 2.41364 7.58524C2.41876 7.59085 2.42365 7.59683 2.42902 7.6022C2.43427 7.60733 2.43976 7.61197 2.44525 7.61697C2.45087 7.6221 2.45636 7.62759 2.46234 7.63248C2.46796 7.63712 2.47394 7.64127 2.4798 7.64566C2.48603 7.6503 2.49201 7.65518 2.49835 7.65958C2.50434 7.66361 2.51068 7.66702 2.51679 7.67069C2.5235 7.67484 2.53009 7.67923 2.53705 7.68314C2.5434 7.68655 2.55011 7.68936 2.55658 7.69254C2.56366 7.69608 2.57074 7.69974 2.57807 7.70291C2.58478 7.70584 2.59198 7.70804 2.59882 7.7106C2.60626 7.71329 2.61359 7.71634 2.62116 7.71878C2.62836 7.72098 2.63593 7.72257 2.64325 7.72452C2.65094 7.72647 2.65839 7.72879 2.66608 7.73038C2.67389 7.73197 2.6817 7.73282 2.68952 7.73404C2.69733 7.73514 2.7049 7.73673 2.71271 7.73758C2.72052 7.73831 2.72858 7.73843 2.73651 7.7388C2.74433 7.73917 2.75214 7.74002 2.76007 7.74002C2.76044 7.74002 2.76093 7.74002 2.76129 7.74002C2.77753 7.74002 2.79352 7.73917 2.80927 7.73758C2.8161 7.73697 2.82282 7.73551 2.82965 7.73453C2.83832 7.73331 2.84723 7.73233 2.85578 7.7305C2.86481 7.72867 2.87348 7.72611 2.88227 7.72379C2.88837 7.72208 2.89472 7.72086 2.9007 7.71903C2.91046 7.71597 2.91999 7.71219 2.92951 7.70853C2.93415 7.7067 2.93915 7.70523 2.94379 7.70328C2.95331 7.69925 2.96234 7.69449 2.9715 7.68997C2.97589 7.68778 2.98041 7.68594 2.9848 7.68363C2.99335 7.67899 3.00141 7.67362 3.00959 7.66849C3.01422 7.66568 3.01898 7.66312 3.02338 7.66007C3.03095 7.65506 3.03815 7.64932 3.04535 7.64371C3.05011 7.64017 3.055 7.63687 3.05951 7.63309C3.06623 7.62772 3.07233 7.62161 3.07868 7.61575C3.08344 7.61148 3.08832 7.60733 3.09296 7.60294C3.09882 7.59708 3.10407 7.59073 3.10956 7.58463C3.11408 7.57962 3.11896 7.57474 3.12323 7.56961C3.12812 7.56363 3.13251 7.55728 3.13715 7.55106C3.14154 7.5452 3.14618 7.53958 3.15021 7.53348C3.15448 7.52725 3.15802 7.52078 3.16193 7.51431C3.16584 7.50784 3.17011 7.5015 3.17377 7.4949C3.17731 7.48831 3.18024 7.48148 3.18354 7.47476C3.18683 7.4678 3.19049 7.46097 3.19355 7.45389C3.19648 7.44705 3.19867 7.43985 3.20124 7.43289C3.20404 7.42557 3.20697 7.41837 3.20941 7.4108C3.21161 7.4036 3.2132 7.39627 3.21503 7.38895C3.21698 7.38126 3.2193 7.37369 3.22101 7.36588C3.22248 7.35855 3.22333 7.35086 3.22443 7.34329C3.22577 7.33536 3.22724 7.32742 3.22809 7.31937C3.22895 7.3118 3.22895 7.30399 3.22931 7.2963C3.2298 7.28812 3.23065 7.28018 3.23065 7.272L3.24152 2.98977C3.24152 2.82815 3.31 2.67263 3.43427 2.55191C3.56781 2.42239 3.74848 2.35086 3.92926 2.35647C4.26789 2.3666 4.5434 2.66116 4.5434 3.01382L4.54877 7.24588C4.54877 7.25443 4.54963 7.26273 4.55011 7.27103C4.55048 7.27847 4.55048 7.28616 4.55121 7.29349C4.55207 7.30228 4.55378 7.3107 4.55512 7.31924C4.55622 7.3262 4.55695 7.33328 4.55829 7.34012C4.56025 7.3494 4.56293 7.35843 4.56537 7.36746C4.56696 7.37332 4.56818 7.3793 4.56989 7.38504C4.57294 7.39481 4.57685 7.40433 4.58051 7.41385C4.58234 7.41861 4.58368 7.42349 4.58564 7.42813C4.59003 7.43826 4.59504 7.44815 4.60004 7.45792C4.60199 7.46158 4.60346 7.46549 4.60541 7.46903C4.61091 7.47916 4.61713 7.4888 4.62323 7.49832C4.62519 7.5015 4.6269 7.50467 4.62897 7.50772C4.63544 7.51737 4.64252 7.5264 4.6496 7.53543C4.6518 7.53824 4.65375 7.54117 4.65595 7.54385C4.66388 7.5535 4.67243 7.56253 4.6811 7.57144C4.68293 7.5734 4.68439 7.57535 4.68622 7.57718C4.69513 7.58609 4.70466 7.59439 4.7143 7.60257C4.71613 7.60416 4.71772 7.60587 4.71955 7.60745C4.72919 7.61539 4.7392 7.62259 4.74933 7.62967C4.75153 7.63126 4.75348 7.63297 4.75568 7.63443C4.76593 7.64139 4.77668 7.64761 4.78742 7.65372C4.78974 7.65506 4.79194 7.65665 4.79438 7.65799C4.80561 7.66397 4.8172 7.66934 4.82892 7.67459C4.83112 7.67557 4.8332 7.67679 4.83539 7.67777C4.84736 7.68277 4.85968 7.68704 4.87214 7.69119C4.87433 7.6918 4.87629 7.69278 4.87848 7.69351C4.89081 7.6973 4.90339 7.70035 4.91596 7.70316C4.91852 7.70364 4.92096 7.7045 4.92353 7.70511C4.95405 7.71134 4.98566 7.71463 5.01801 7.71463C5.01825 7.71463 5.0185 7.71463 5.01874 7.71463C5.02692 7.71463 5.03498 7.71378 5.04303 7.71341C5.05085 7.71292 5.05866 7.71292 5.06635 7.71219C5.07489 7.71121 5.08307 7.70963 5.0915 7.70828C5.09858 7.70718 5.1059 7.70645 5.11298 7.70499C5.1214 7.70328 5.12958 7.70084 5.13788 7.69864C5.1446 7.69681 5.15131 7.69547 5.1579 7.69339C5.16633 7.69083 5.17438 7.68753 5.18256 7.68436C5.18866 7.68204 5.19501 7.68021 5.20099 7.67764C5.20942 7.67398 5.2176 7.66971 5.22577 7.66568C5.23115 7.663 5.23676 7.66068 5.24201 7.65787C5.25007 7.65347 5.25776 7.64835 5.26557 7.64359C5.27057 7.64041 5.27582 7.6376 5.28071 7.63431C5.28815 7.6293 5.29511 7.62369 5.30219 7.6182C5.30707 7.61453 5.31208 7.61112 5.31684 7.60721C5.32355 7.60172 5.3299 7.59549 5.33637 7.58951C5.34089 7.58536 5.34565 7.58133 5.35016 7.57694C5.35615 7.57083 5.36176 7.56424 5.3675 7.55789C5.37177 7.55313 5.37629 7.54862 5.38044 7.54361C5.38556 7.53726 5.3902 7.53055 5.39496 7.52408C5.39911 7.51846 5.40351 7.51309 5.40741 7.50748C5.41181 7.50101 5.41547 7.49417 5.4195 7.48746C5.42328 7.48123 5.42743 7.47513 5.43085 7.46878C5.43451 7.46207 5.43744 7.45499 5.44074 7.44815C5.44404 7.44132 5.4477 7.43472 5.45063 7.42764C5.45344 7.42093 5.45575 7.41385 5.4582 7.40689C5.461 7.39945 5.46406 7.39212 5.46637 7.38455C5.46857 7.37723 5.47016 7.36978 5.47211 7.36234C5.47407 7.35477 5.47638 7.34732 5.47785 7.33963C5.47944 7.33194 5.48029 7.32401 5.48151 7.31632C5.48261 7.3085 5.4842 7.30081 5.48493 7.293C5.48578 7.28507 5.48578 7.27701 5.48615 7.26895C5.48664 7.26102 5.48737 7.25333 5.48737 7.24527V1.60342C5.48737 1.24307 5.78034 0.94497 6.14033 0.938745C6.31403 0.936303 6.47907 1.00344 6.60712 1.1293C6.74042 1.26028 6.81684 1.44131 6.81684 1.62588V7.27115C6.81684 7.27969 6.81769 7.28799 6.81818 7.29642C6.81855 7.30386 6.81855 7.31143 6.81928 7.31888C6.82014 7.32718 6.82185 7.33524 6.82307 7.34342C6.82429 7.35086 6.82502 7.35831 6.82648 7.36551C6.82819 7.37369 6.83063 7.38162 6.83271 7.38968C6.83454 7.39664 6.83588 7.4036 6.83808 7.41043C6.84077 7.4191 6.84418 7.42752 6.84736 7.43594C6.84956 7.4418 6.85139 7.44779 6.85383 7.45352C6.85761 7.46231 6.86201 7.47073 6.86628 7.47928C6.86872 7.48428 6.87092 7.48953 6.8736 7.49454C6.87824 7.50321 6.88361 7.51138 6.88886 7.51968C6.89167 7.52408 6.89411 7.52884 6.89716 7.53323C6.90278 7.54154 6.909 7.54947 6.91523 7.5574C6.91828 7.56131 6.92097 7.56546 6.92414 7.56925C6.93098 7.57767 6.93854 7.58548 6.94599 7.59342C6.94892 7.59634 6.95148 7.59964 6.95441 7.60257C6.9621 7.61038 6.9704 7.61746 6.97871 7.62467C6.98176 7.62735 6.98456 7.63028 6.98774 7.63284C6.99702 7.64053 7.00678 7.64749 7.01655 7.65445C7.01899 7.65616 7.02131 7.65811 7.02387 7.65994C7.03437 7.66702 7.04536 7.67349 7.05646 7.67972C7.05854 7.68082 7.06037 7.68228 7.06245 7.68338C7.07465 7.68997 7.0871 7.69583 7.09992 7.70145C7.10114 7.70194 7.10224 7.70267 7.10346 7.70316C7.11677 7.70877 7.13044 7.71365 7.14436 7.71805C7.14509 7.71842 7.14582 7.71866 7.14667 7.7189C7.17585 7.72806 7.20624 7.73428 7.23762 7.73758C7.23786 7.73758 7.23798 7.73758 7.23823 7.73758C7.25397 7.73917 7.26997 7.74002 7.2862 7.74002C7.28632 7.74002 7.28645 7.74002 7.28669 7.74002C7.29499 7.74002 7.30317 7.73917 7.31147 7.7388C7.31916 7.73831 7.32685 7.73831 7.33442 7.73758C7.34309 7.73673 7.35151 7.73502 7.36005 7.73367C7.36701 7.73258 7.37409 7.73184 7.38105 7.73038C7.3902 7.72855 7.39899 7.72586 7.40791 7.72354C7.41389 7.72196 7.42011 7.72073 7.42597 7.7189C7.43549 7.71585 7.44465 7.71219 7.45393 7.70865C7.45893 7.7067 7.46406 7.70511 7.46906 7.70303C7.47846 7.69901 7.4875 7.69437 7.49665 7.68973C7.50105 7.68753 7.50568 7.6857 7.51008 7.68326C7.51899 7.67838 7.52753 7.67288 7.5362 7.66739C7.54035 7.66483 7.54462 7.66251 7.54877 7.6597C7.55756 7.65384 7.56574 7.64725 7.57404 7.64078C7.57758 7.63809 7.58137 7.63553 7.58491 7.63272C7.59309 7.62589 7.60078 7.61844 7.60859 7.61112C7.61176 7.60819 7.61518 7.6055 7.61811 7.60245C7.62568 7.59488 7.63276 7.58682 7.63972 7.57864C7.64265 7.57547 7.6457 7.57242 7.64851 7.56912C7.65522 7.56094 7.66132 7.55228 7.66743 7.54373C7.66999 7.54007 7.67292 7.53665 7.67548 7.53299C7.68122 7.52445 7.68635 7.51553 7.69147 7.50662C7.69392 7.50247 7.69672 7.49857 7.69904 7.49429C7.70393 7.48526 7.70808 7.47586 7.71235 7.46646C7.71442 7.46207 7.71687 7.4578 7.7187 7.45328C7.7226 7.44412 7.72578 7.4346 7.72907 7.4252C7.73078 7.4202 7.73298 7.41531 7.73457 7.41007C7.73725 7.40115 7.73933 7.39176 7.74165 7.3826C7.74299 7.37674 7.74482 7.371 7.74604 7.36514C7.74787 7.35611 7.74897 7.34671 7.75031 7.33756C7.75117 7.33121 7.75251 7.32498 7.75312 7.31851C7.7541 7.30997 7.7541 7.30118 7.75446 7.29239C7.75483 7.28519 7.75556 7.27811 7.75556 7.27066V3.39712C7.78608 3.13528 8.00837 2.92788 8.27753 2.92324C8.41584 2.92092 8.54939 2.97537 8.65254 3.07681C8.76045 3.18277 8.82234 3.32925 8.82234 3.47854V9.01798L8.82258 9.03897C8.82514 9.34305 9.02485 9.60001 9.31941 9.67838C9.61201 9.75614 9.91096 9.63321 10.0648 9.36978L10.0677 9.36454C10.4356 8.72171 11.419 7.71414 11.7061 7.50296C11.7393 7.47843 11.7775 7.45877 11.8197 7.44412C12.0067 7.37955 12.2412 7.42532 12.4035 7.55814C12.4799 7.62076 12.5672 7.72574 12.5479 7.87015Z" fill="#F6B3BE"/>
</svg>
